<?xml version="1.0" encoding="utf-8"?>
<!-- Generator: Adobe Illustrator 19.2.0, SVG Export Plug-In . SVG Version: 6.00 Build 0)  -->
<svg version="1.1" id="Layer_1" xmlns="http://www.w3.org/2000/svg" xmlns:xlink="http://www.w3.org/1999/xlink" x="0px" y="0px"
	 viewBox="0 0 215.2 215.2" style="enable-background:new 0 0 215.2 215.2;" xml:space="preserve">
<style type="text/css">
	.st0{fill:#FFFFFF;stroke:#000000;stroke-miterlimit:10;}
</style>
<g>
	<path class="st0" d="M17.1,88.9h4.8c0,0.3-0.1,0.5-0.1,0.8V184h-3.3c-3.3,0-6,2.7-6,6s2.7,6,6,6h9.3h22.8h22.8h22.8H119h22.8h22.8
		h22.8h9.3c3.3,0,6-2.7,6-6s-2.7-6-6-6h-3.3V89.7c0-0.3,0-0.5-0.1-0.8h4.8c4.5,0,8.5-2.9,9.9-7.2s-0.1-9-3.7-11.7L111.2,1.2
		c-2.1-1.6-5-1.6-7.1,0L10.9,70.1c-3.6,2.7-5.1,7.4-3.7,11.7S12.6,88.9,17.1,88.9z M113,184h-10.8V89.7c0-0.3,0-0.5-0.1-0.8H113
		c0,0.3-0.1,0.5-0.1,0.8L113,184L113,184z M67.4,184H56.7V89.7c0-0.3,0-0.5-0.1-0.8h10.9c0,0.3-0.1,0.5-0.1,0.8V184z M33.9,184V95.7
		h10.8V184H33.9z M79.4,184V95.7h10.8V184H79.4z M125,184V95.7h10.8V184H125z M170.5,184V95.7h10.8V184H170.5z M158.5,89.7V184
		h-10.8V89.7c0-0.3,0-0.5-0.1-0.8h10.9C158.6,89.2,158.5,89.5,158.5,89.7z M107.6,13.5l85.8,63.5H21.8
		C21.8,76.9,107.6,13.5,107.6,13.5z"/>
	<path class="st0" d="M207.9,203.2H7.3c-3.3,0-6,2.7-6,6s2.7,6,6,6h200.5c3.3,0,6-2.7,6-6S211.2,203.2,207.9,203.2z"/>
</g>
</svg>
