<?xml version="1.0" encoding="utf-8"?>
<!-- Generator: Adobe Illustrator 19.2.0, SVG Export Plug-In . SVG Version: 6.00 Build 0)  -->
<svg version="1.1" id="Capa_1" xmlns="http://www.w3.org/2000/svg" xmlns:xlink="http://www.w3.org/1999/xlink" x="0px" y="0px"
	 viewBox="0 0 398.5 398.5" style="enable-background:new 0 0 398.5 398.5;" xml:space="preserve">
<style type="text/css">
	.st0{fill:#F9F9F9;}
</style>
<g>
	<path class="st0" d="M315.2,9c-3.3-5.7-9.6-9-17-9h-91.3C196,0,184.7,7.1,180,16.9L83.2,218c-3.2,6.6-3,13.5,0.5,19
		c3.5,5.6,9.6,8.8,16.9,9l71.7,0.9l-51.9,129.7c-1.3,3.2-4,10,0.8,17c2.1,3.1,5.7,4.9,9.4,4.9h0.8c7,0,11.2-5.3,13.2-7.9
		l167.6-210.5c7.2-9,4.2-17,3.1-19.4c-1.1-2.2-5.6-9.6-17-9.6h-53.3l69.8-123C318.4,21.8,318.6,14.7,315.2,9z"/>
</g>
</svg>
