<?xml version="1.0" encoding="utf-8"?>
<!-- Generator: Adobe Illustrator 19.2.0, SVG Export Plug-In . SVG Version: 6.00 Build 0)  -->
<svg version="1.1" id="Layer_1" xmlns="http://www.w3.org/2000/svg" xmlns:xlink="http://www.w3.org/1999/xlink" x="0px" y="0px"
	 viewBox="0 0 512 512" style="enable-background:new 0 0 512 512;" xml:space="preserve">
<style type="text/css">
	.st0{fill:#F9F9F9;}
</style>
<g>
	<g>
		<g>
			<path class="st0" d="M85.3,221.9c-18.8,0-34.1,15.3-34.1,34.1c0,18.8,15.3,34.1,34.1,34.1c18.8,0,34.1-15.3,34.1-34.1
				C119.5,237.2,104.2,221.9,85.3,221.9z M85.3,273.1c-9.4,0-17.1-7.6-17.1-17.1c0-9.4,7.7-17.1,17.1-17.1c9.4,0,17.1,7.7,17.1,17.1
				C102.4,265.4,94.7,273.1,85.3,273.1z"/>
			<path class="st0" d="M346.1,358.6c-14.3,0-27.2,9-32.1,22.5c-6.4,17.7,2.7,37.3,20.4,43.7c3.8,1.4,7.7,2.1,11.7,2.1
				c14.3,0,27.2-9,32.1-22.5c6.4-17.7-2.7-37.3-20.4-43.7C354,359.3,350,358.6,346.1,358.6z M362.1,398.6
				c-3.1,8.6-13.2,13.4-21.9,10.2c-8.8-3.2-13.4-13-10.2-21.9c2.4-6.7,8.9-11.2,16.1-11.2c2,0,3.9,0.4,5.8,1
				C360.8,379.9,365.3,389.8,362.1,398.6z"/>
			<path class="st0" d="M392.8,298.6c14.3,0,27.2-9,32.1-22.5c6.4-17.7-2.7-37.3-20.4-43.8c-3.8-1.4-7.7-2.1-11.7-2.1
				c-14.3,0-27.2,9-32.1,22.5c-6.4,17.7,2.7,37.3,20.4,43.7C384.9,297.9,388.8,298.6,392.8,298.6z M376.7,258.6
				c2.4-6.7,8.9-11.2,16.1-11.2c2,0,3.9,0.4,5.8,1c8.8,3.2,13.4,13,10.2,21.9c-3.1,8.6-13.2,13.4-21.9,10.2
				C378.1,277.3,373.5,267.5,376.7,258.6z"/>
			<path class="st0" d="M341.3,298.7v-256c0-23.5-19.1-42.7-42.7-42.7h-256C19.1,0,0,19.1,0,42.7v256c0,23.5,19.1,42.7,42.7,42.7
				h256C322.2,341.3,341.3,322.2,341.3,298.7z M17.1,298.7v-256c0-14.1,11.5-25.6,25.6-25.6h256c14.1,0,25.6,11.5,25.6,25.6v256
				c0,14.1-11.5,25.6-25.6,25.6h-256C28.6,324.3,17.1,312.8,17.1,298.7z"/>
			<path class="st0" d="M85.3,51.2c-18.8,0-34.1,15.3-34.1,34.1c0,18.8,15.3,34.1,34.1,34.1c18.8,0,34.1-15.3,34.1-34.1
				C119.5,66.5,104.2,51.2,85.3,51.2z M85.3,102.4c-9.4,0-17.1-7.6-17.1-17.1c0-9.4,7.7-17.1,17.1-17.1c9.4,0,17.1,7.7,17.1,17.1
				C102.4,94.8,94.7,102.4,85.3,102.4z"/>
			<path class="st0" d="M483.9,188.7L361.2,144c-4.4-1.6-9.3,0.7-10.9,5.1c-1.6,4.4,0.7,9.3,5.1,10.9l122.7,44.7
				c13.3,4.8,20.1,19.6,15.3,32.8l-87.6,240.6c-4.8,13.3-19.5,20.1-32.8,15.3l-240.6-87.6c-13.3-4.8-20.1-19.5-15.3-32.8l4-11
				c1.6-4.4-0.7-9.3-5.1-10.9c-4.5-1.6-9.3,0.7-10.9,5.1l-4,11c-8,22.1,3.4,46.6,25.5,54.7l240.6,87.6c4.8,1.7,9.7,2.6,14.5,2.6
				c17.4,0,33.8-10.8,40.1-28.1l87.6-240.6C517.5,221.2,506,196.7,483.9,188.7z"/>
			<path class="st0" d="M232.6,354.3c-4.1,7.4-12.8,10.7-20.7,7.8c-4.8-1.8-7.6-5.2-9-7.8c-2.3-4.1-7.5-5.6-11.6-3.3
				c-4.1,2.3-5.6,7.5-3.3,11.6c4,7.3,10.5,12.8,18.1,15.6c3.9,1.4,7.8,2.1,11.7,2.1c12.1,0,23.6-6.5,29.8-17.7
				c2.3-4.1,0.8-9.3-3.4-11.6C240.1,348.7,234.9,350.2,232.6,354.3z"/>
			<path class="st0" d="M170.7,136.5c-18.8,0-34.1,15.3-34.1,34.1c0,18.8,15.3,34.1,34.1,34.1s34.1-15.3,34.1-34.1
				C204.8,151.9,189.5,136.5,170.7,136.5z M170.7,187.7c-9.4,0-17.1-7.6-17.1-17.1c0-9.4,7.7-17.1,17.1-17.1
				c9.4,0,17.1,7.7,17.1,17.1C187.7,180.1,180.1,187.7,170.7,187.7z"/>
			<path class="st0" d="M256,221.9c-18.8,0-34.1,15.3-34.1,34.1c0,18.8,15.3,34.1,34.1,34.1s34.1-15.3,34.1-34.1
				C290.1,237.2,274.8,221.9,256,221.9z M256,273.1c-9.4,0-17.1-7.6-17.1-17.1c0-9.4,7.7-17.1,17.1-17.1c9.4,0,17.1,7.7,17.1,17.1
				C273.1,265.4,265.4,273.1,256,273.1z"/>
			<path class="st0" d="M256,51.2c-18.8,0-34.1,15.3-34.1,34.1c0,18.8,15.3,34.1,34.1,34.1s34.1-15.3,34.1-34.1
				C290.1,66.5,274.8,51.2,256,51.2z M256,102.4c-9.4,0-17.1-7.6-17.1-17.1c0-9.4,7.7-17.1,17.1-17.1c9.4,0,17.1,7.7,17.1,17.1
				C273.1,94.8,265.4,102.4,256,102.4z"/>
		</g>
	</g>
</g>
</svg>
