<?xml version="1.0" encoding="utf-8"?>
<!-- Generator: Adobe Illustrator 19.2.0, SVG Export Plug-In . SVG Version: 6.00 Build 0)  -->
<svg version="1.1" id="Layer_1" xmlns="http://www.w3.org/2000/svg" xmlns:xlink="http://www.w3.org/1999/xlink" x="0px" y="0px"
	 viewBox="0 0 503.6 503.6" style="enable-background:new 0 0 503.6 503.6;" xml:space="preserve">
<style type="text/css">
	.st0{fill:#FFFFFF;}
</style>
<g transform="translate(1 1)">
	<g>
		<path class="st0" d="M477.4,417c-50.1-26.6-88.5-41.5-122.7-47.2l3.5-4.9c1.7-1.7,2.5-4.2,1.7-6.7l-7.9-31.5
			c20.8-29.4,33-66.2,33-101.2V192h8.4h16.8c5,0,8.4-3.4,8.4-8.4s-3.4-8.4-8.4-8.4h-8.4v-8.4c0-66.3-43.6-122.5-109.1-141v-1.7
			c0-13.4-10.9-25.2-25.2-25.2H234c-13.4,0-25.2,10.9-25.2,25.2v1.7c-65.5,18.5-109.1,74.7-109.1,141v8.4h-8.4c-5,0-8.4,3.4-8.4,8.4
			s3.4,8.4,8.4,8.4h16.8h8.4v33.6c0,35,12.2,71.7,33,101.2l-7.9,31.5c0,1.7,0,5,1.7,6.7l3.5,4.9c-34.2,5.7-72.6,20.6-122.7,47.2
			C8.2,424.5-1,440.5-1,458.1v36.1c0,5,3.4,8.4,8.4,8.4h201.4h3.4h77.2h3.4h201.4c5,0,8.4-3.4,8.4-8.4v-36.1
			C502.6,441.3,492.5,425.4,477.4,417z M245.8,409.2l5.1-11.4l12.5,27.6l8.2,18.5h-40.9L245.8,409.2z M224.3,460.6h53l4.8,25.2
			h-62.8L224.3,460.6z M338.9,343.1l3.4,15.1l-8.6,11.8c-0.5,0.4-1.1,1-1.5,1.7L297.3,420l-11.1,15.2l-22.6-50.9
			c27-3.3,51.2-16.9,70.7-36.4c0.2-0.2,0.4-0.4,0.6-0.6c0.1-0.1,0.1-0.1,0.2-0.2C336.4,345.8,337.7,344.5,338.9,343.1z M328,60.4
			c0.9,0.6,1.9,1.3,2.8,1.9c10.7,8,20.6,17.3,28.3,27.4l-38.6,7.6L328,60.4z M181.1,97.2l-38.6-7.6c7.7-10.1,17.6-19.4,28.3-27.4
			c0.9-0.6,1.8-1.3,2.8-1.9L181.1,97.2z M116.5,166.9c0-22.3,5.6-43.4,15.8-61.8l58.1,11.5c0.8,0,0.8,0,1.7,0c2.5,0,4.2-0.8,6.7-1.7
			c2.5-1.7,3.4-5,2.5-7.6l-11.5-56.1c6.1-2.9,12.4-5.4,19.1-7.5v22.4c0,5,3.4,8.4,8.4,8.4s8.4-3.4,8.4-8.4V32.6v-8.4
			c0-4.2,3.4-8.4,8.4-8.4h33.6c4.2,0,8.4,3.4,8.4,8.4v8.4v33.6c0,5,3.4,8.4,8.4,8.4s8.4-3.4,8.4-8.4V43.7c6.9,2.1,13.4,4.7,19.7,7.8
			l-11.3,55c0,2.5,0.8,5.9,2.5,7.6s3.4,2.5,5.9,2.5c0.8,0,0.8,0,1.7,0l57.7-12.1c10.4,18.6,16.2,39.9,16.2,62.5v8.4h-8.4H124.9h-8.4
			L116.5,166.9L116.5,166.9z M133.3,192h235v33.6c0,36.6-12.6,69.1-31.4,93.8l-0.5,0.2c-0.8,0.8-1.7,1.7-2.5,2.5
			c-4.2,5.6-8.7,10.8-13.3,15.4c-19.8,18.4-43.3,29.6-66.1,30.7c-1.1-0.5-2.4-0.7-3.7-0.7c-1.3,0-2.5,0.3-3.5,0.7
			c-13.9-0.6-28.1-5-41.6-12.6c-13.7-7.9-26.5-19.2-38-33.5c-0.8-0.8-1.7-1.7-2.5-2.5l-0.5-0.2c-18.9-24.7-31.4-57.2-31.4-93.8
			L133.3,192L133.3,192z M238,384.3l-22.6,50.9L204.3,420l-34.9-48.3c-0.3-0.3-0.6-0.5-0.9-0.8l-9.2-12.6l3.4-15.1
			c1.1,1.2,2.3,2.4,3.5,3.6C185.8,366.9,210.4,380.9,238,384.3z M15.8,458.1c0-10.9,5.9-21,15.9-26c53.5-28.4,92-42.7,126.3-46.9
			l50.1,68.9l-6.4,31.8h-186V458.1z M485.8,485.8h-186l-6.4-31.8l50.6-69.6c34.2,5.2,73.4,19.4,125.8,46.9
			c10.1,5.9,15.9,15.9,15.9,26.9V485.8z"/>
	</g>
</g>
</svg>
