<?xml version="1.0" encoding="utf-8"?>
<!-- Generator: Adobe Illustrator 19.2.0, SVG Export Plug-In . SVG Version: 6.00 Build 0)  -->
<svg version="1.1" id="Capa_1" xmlns="http://www.w3.org/2000/svg" xmlns:xlink="http://www.w3.org/1999/xlink" x="0px" y="0px"
	 viewBox="0 0 433.3 433.3" style="enable-background:new 0 0 433.3 433.3;" xml:space="preserve">
<style type="text/css">
	.st0{fill:#FFF5F5;stroke:#000000;stroke-miterlimit:10;}
</style>
<g>
	<g id="icons_1_">
		<g>
			<path class="st0" d="M132,262.3c-17.9-20.5-20.4-52.7-32.6-68.1c-10.2-13-26.4-6.7-28.4,4.7c-3,17.6,15.9,69.4,25.4,86
				c2.4,4.1-1.9,11.8-9.2,5.2c-7.3-6.6-36.5-73.6-25.1-117.8c5.6-21.7-8.8-44.3-27.2-32.9c-18.4,11.4-29.1,106.7-1.8,162.5
				c23,47,71.6,78.2,80.1,83.5c5.7,3.6,8.1,24.6,9,37.6c0.4,6.1,2.1,10.3,8.9,10.3c7.5,0,22.7,0,43.9,0c11,0,11.4-6.6,11.4-9.8
				C186.4,340.4,190.8,329.8,132,262.3z"/>
			<path class="st0" d="M301.3,262.3c17.9-20.5,20.4-52.7,32.6-68.1c10.2-13,26.4-6.7,28.4,4.7c3,17.6-15.9,69.4-25.4,86
				c-2.4,4.1,1.9,11.8,9.2,5.2c7.3-6.6,36.5-73.6,25.1-117.8c-5.6-21.7,8.8-44.3,27.2-32.9c18.4,11.4,29.1,106.7,1.8,162.5
				c-23,47-71.6,78.2-80.1,83.5c-5.7,3.6-8.1,24.6-9,37.6c-0.4,6.1-2.1,10.3-8.9,10.3c-7.5,0-22.7,0-43.9,0c-11,0-11.4-6.6-11.4-9.8
				C246.9,340.4,242.4,329.8,301.3,262.3z"/>
			<path class="st0" d="M273.9,0c-22.6,0-43.1,9-58.1,23.6C200.8,9,180.3,0,157.7,0c-46,0-83.3,37.3-83.3,83.3
				c0,17.9,5.6,34.4,15.2,48c3.8,6,8.4,11.4,13.6,16.1l86.4,86.6c8.7,8.7,17.3,17.3,26,17.3c0.1,0,0.1,0,0.2,0c0.1,0,0.1,0,0.2,0
				c8.7,0,17.3-8.7,26-17.3l86.4-86.6c5.2-4.7,9.8-10.2,13.6-16.1c9.6-13.6,15.2-30.1,15.2-48C357.2,37.3,319.9,0,273.9,0z"/>
		</g>
	</g>
</g>
</svg>
