<?xml version="1.0" encoding="utf-8"?>
<!-- Generator: Adobe Illustrator 19.2.0, SVG Export Plug-In . SVG Version: 6.00 Build 0)  -->
<svg version="1.1" id="Capa_1" xmlns="http://www.w3.org/2000/svg" xmlns:xlink="http://www.w3.org/1999/xlink" x="0px" y="0px"
	 viewBox="0 0 53.5 53.5" style="enable-background:new 0 0 53.5 53.5;" xml:space="preserve">
<style type="text/css">
	.st0{fill:#FFFFFF;stroke:#010002;stroke-miterlimit:10;}
</style>
<g>
	<g>
		<circle class="st0" cx="26.7" cy="4.5" r="4.5"/>
		<path class="st0" d="M28.3,11.2c-1.1-0.2-2.3-0.2-3.4,0c-7.5,0.9-9.9,9.6-9.2,16.2c0.3,2.9,4.8,2.9,4.5,0c-0.3-2.4-0.1-6,1.1-8.6
			c0,3.1,0,6.3,0,9.4c0,0.1,0,0.2,0,0.3c0,0.1,0,0.1,0,0.1c0,7.5,0,15-0.3,22.4c-0.1,3.3,5,3.3,5.1,0c0.2-5.9,0.3-11.7,0.3-17.6
			c0.2,0,0.5,0,0.7,0c0,5.9,0.1,11.7,0.3,17.6c0.1,3.3,5.3,3.3,5.2,0c-0.3-7.5-0.3-14.9-0.3-22.4c0-0.2,0-0.4-0.1-0.6
			c0-3.2-0.1-6.5-0.1-9.7c1.5,2.6,1.7,6.6,1.4,9.1c-0.3,2.9,4.2,2.9,4.5,0C38.7,20.6,36.1,11.7,28.3,11.2z"/>
	</g>
</g>
</svg>
