<?xml version="1.0" encoding="utf-8"?>
<!-- Generator: Adobe Illustrator 19.2.0, SVG Export Plug-In . SVG Version: 6.00 Build 0)  -->
<svg version="1.1" id="Capa_1" xmlns="http://www.w3.org/2000/svg" xmlns:xlink="http://www.w3.org/1999/xlink" x="0px" y="0px"
	 viewBox="0 0 290.1 290.1" style="enable-background:new 0 0 290.1 290.1;" xml:space="preserve">
<style type="text/css">
	.st0{fill:#FFFFFF;}
</style>
<g>
	<path id="circle7936" class="st0" d="M23.9,0c-1.8,0-3.5,1-4.4,2.6c-25.9,44.9-25.9,100.1,0,145c1.3,2.4,4.4,3.3,6.8,1.9
		s3.3-4.4,1.9-6.8c0,0,0-0.1-0.1-0.1C4,100.8,4,49.3,28.1,7.6c1.4-2.4,0.6-5.4-1.7-6.9C25.6,0.3,24.8,0,23.9,0z M266,0
		c-2.8,0.1-4.9,2.4-4.8,5.2c0,0.8,0.3,1.7,0.7,2.4c24.1,41.8,24.1,93.2,0,135c-1.4,2.4-0.6,5.4,1.7,6.9s5.4,0.6,6.9-1.7
		c0,0,0-0.1,0.1-0.1c25.9-44.9,25.9-100.1,0-145C269.7,0.9,267.9-0.1,266,0z M81.1,25c-1.8,0-3.5,1-4.4,2.6c-17,29.4-17,65.6,0,95
		c1.3,2.4,4.4,3.3,6.8,1.9s3.3-4.4,1.9-6.8c0,0,0-0.1-0.1-0.1c-15.2-26.3-15.2-58.7,0-85c1.4-2.4,0.6-5.4-1.7-6.9
		C82.9,25.3,82,25,81.1,25z M208.8,25c-2.8,0.1-4.9,2.4-4.8,5.2c0,0.8,0.3,1.6,0.7,2.4c15.2,26.3,15.2,58.7,0,85
		c-1.4,2.4-0.6,5.4,1.7,6.9s5.4,0.6,6.9-1.7c0,0,0.1-0.1,0.1-0.1c17-29.4,17-65.6,0-95C212.5,25.9,210.7,24.9,208.8,25z M145,40.1
		c-19.3,0-35,15.7-35,35c0,17.1,12.4,31.4,28.6,34.4L90.2,283.7c-0.7,2.7,0.8,5.4,3.5,6.2c1.6,0.5,3.4,0.1,4.6-1.1L145,248
		l46.7,40.9c2.1,1.8,5.2,1.6,7.1-0.5c1.1-1.3,1.5-3,1.1-4.6l-48.4-174.3c16.2-3,28.6-17.3,28.6-34.4C180,55.8,164.3,40.1,145,40.1z
		 M145,50.1c13.9,0,25,11.1,25,25s-11.1,25-25,25s-25-11.1-25-25S131.2,50.1,145,50.1z M145,57.6c-1.4,0-2.5,1.1-2.5,2.5
		c0,1.4,1.1,2.5,2.5,2.5c0,0,0,0,0.1,0c6.9,0,12.5,5.6,12.5,12.5c0,1.4,1.1,2.5,2.5,2.5c1.4,0,2.5-1.1,2.5-2.5c0,0,0,0,0-0.1
		C162.5,65.4,154.7,57.6,145,57.6z M145,123.7l24.8,89.2L145,234.7L120.2,213L145,123.7z M117.3,223.7l20.2,17.6l-33.1,29
		L117.3,223.7z M172.8,223.7l12.9,46.6l-33.1-29L172.8,223.7z"/>
</g>
</svg>
