<?xml version="1.0" encoding="utf-8"?>
<!-- Generator: Adobe Illustrator 19.2.0, SVG Export Plug-In . SVG Version: 6.00 Build 0)  -->
<svg version="1.1" id="Capa_1" xmlns="http://www.w3.org/2000/svg" xmlns:xlink="http://www.w3.org/1999/xlink" x="0px" y="0px"
	 viewBox="0 0 612 612" style="enable-background:new 0 0 612 612;" xml:space="preserve">
<style type="text/css">
	.st0{fill:#FFFFFF;stroke:#000000;stroke-miterlimit:10;}
</style>
<g>
	<path class="st0" d="M470.3,488.7h35.4c10.8,0,19.6-8.8,19.6-19.6V91.2c0-27.1-22-49-49-49H368.6v-28H243.4v28H135.8
		c-27.1,0-49,22-49,49v377.8c0,10.8,8.8,19.6,19.6,19.6h35.4L0,597.8h91.1l111-109.1h207.7l111,109.1H612L470.3,488.7z M409.8,426.8
		c0-16.6,13.5-30,30-30c16.6,0,30,13.5,30,30c0,16.6-13.5,30-30,30C423.3,456.9,409.8,443.4,409.8,426.8z M174.2,456.9
		c-16.6,0-30-13.5-30-30s13.5-30,30-30s30,13.5,30,30C204.3,443.4,190.8,456.9,174.2,456.9z M145.4,301.5c-5.4,0-9.8-4.4-9.8-9.8
		V101.9c0-5.4,4.4-9.8,9.8-9.8h321.3c5.4,0,9.8,4.4,9.8,9.8v189.9c0,5.4-4.4,9.8-9.8,9.8L145.4,301.5L145.4,301.5z"/>
</g>
</svg>
